# xmcd
# 
# Track frame offsets:
#     150
#     25795
#     42100
#     69375
# 
# Disc length: 1263
# 
# Revision: 1
# Processed by: cddbd v1.5.2PL0 Copyright (c) Steve Scherf et al.
# Submitted via: BonkEnc v1.0.8
# 
DISCID=2804ed04
DTITLE=中島美嘉 - 雪の華
DYEAR=2003
DGENRE=JPop
TTITLE0=雪の華
TTITLE1=雪の華 (Acoustic)
TTITLE2=雪の華 (REGGAE DISCO ROCKERS FLOWER'S MIX)
TTITLE3=雪の華 (Instrumental)
EXTD=YEAR: 2003
EXTT0=
EXTT1=
EXTT2=
EXTT3=
PLAYORDER=
